Coordinates
version=1
nRows=7
nColumns=50
inDegrees=yes

Units are S.I. units (second, meters, Newtons, ...)
If the header above contains a line with 'inDegrees', this indicates whether rotational values are in degrees (yes) or radians (no).

endheader
time	pelvis_tilt	pelvis_list	pelvis_rotation	pelvis_tx	pelvis_ty	pelvis_tz	hip_flexion_r	hip_adduction_r	hip_rotation_r	knee_angle_r	knee_angle_r_beta	ankle_angle_r	subtalar_angle_r	mtp_angle_r	hip_flexion_l	hip_adduction_l	hip_rotation_l	knee_angle_l	knee_angle_l_beta	socket_flexion	socket_adduction	socket_rotation	socket_tx	socket_ty	socket_tz	pros_ankle_rx	pros_ankle_ry	pros_ankle_rz	pros_ankle_tx	pros_ankle_ty	pros_ankle_tz	foot_flex	lumbar_extension	lumbar_bending	lumbar_rotation	arm_flex_r	arm_add_r	arm_rot_r	elbow_flex_r	pro_sup_r	wrist_flex_r	wrist_dev_r	arm_flex_l	arm_add_l	arm_rot_l	elbow_flex_l	pro_sup_l	wrist_flex_l	wrist_dev_l
      0.90314000	      2.53455831	     -4.55596590	      1.84176413	      0.41879601	      1.04012774	      0.37665884	     10.35415025	      6.25665738	     -1.06433664	     24.73846965	      0.43176775	     11.18824616	      0.00000000	      0.00000000	     11.42045479	    -10.30484231	     -1.88012590	     64.58151331	      1.12716004	     -3.22482159	     -3.93331519	     19.14709343	      0.00000000	      0.00000000	      0.00000000	      0.00000000	      0.00000000	      0.00000000	      0.00000000	      0.00000000	      0.00000000	     13.40642876	    -21.75289709	      3.80681796	      3.91691241	      0.00000000	    -13.33797912	      0.00000000	     75.25990144	     89.69590558	      0.00000000	      0.00000000	      0.00000000	    -13.33797912	      0.00000000	     75.25990144	     89.69590558	      0.00000000	      0.00000000
      0.90732000	      2.45478100	     -4.33886617	      1.79101559	      0.42392481	      1.04130602	      0.37682338	      9.86016437	      6.06537530	     -0.94369416	     24.27210916	      0.42362822	     11.12317931	      0.00000000	      0.00000000	     12.06497002	    -10.01983140	     -1.62727399	     64.30937783	      1.12241038	     -3.05902909	     -4.11506899	     18.78696552	      0.00000000	      0.00000000	      0.00000000	      0.00000000	      0.00000000	      0.00000000	      0.00000000	      0.00000000	      0.00000000	     13.37145128	    -21.68099600	      3.49534425	      3.93856574	      0.00000000	    -13.33965720	      0.00000000	     75.25938787	     89.69632319	      0.00000000	      0.00000000	      0.00000000	    -13.33965720	      0.00000000	     75.25938787	     89.69632319	      0.00000000	      0.00000000
      0.91150000	      2.40301200	     -4.15491429	      1.70339487	      0.42890458	      1.04239795	      0.37706188	      9.45408867	      5.89106556	     -0.88192177	     24.01832255	      0.41919881	     11.15486477	      0.00000000	      0.00000000	     12.69060917	     -9.80310157	     -1.45746641	     64.07458828	      1.11831253	     -2.87096398	     -4.21585371	     18.31575457	      0.00000000	      0.00000000	      0.00000000	      0.00000000	      0.00000000	      0.00000000	      0.00000000	      0.00000000	      0.00000000	     13.31629960	    -21.72465849	      3.24015990	      3.96682458	      0.00000000	    -13.34035635	      0.00000000	     75.25917408	     89.69649713	      0.00000000	      0.00000000	      0.00000000	    -13.34035635	      0.00000000	     75.25917408	     89.69649713	      0.00000000	      0.00000000
      0.91568000	      2.28585965	     -3.92894653	      1.64748432	      0.43416417	      1.04357728	      0.37712986	      8.88930128	      5.69211815	     -0.70654004	     23.35373444	      0.40759956	     11.00391523	      0.00000000	      0.00000000	     13.30075764	     -9.46485496	     -1.16553276	     63.65960458	      1.11106970	     -2.66929874	     -4.43150606	     18.06071317	      0.00000000	      0.00000000	      0.00000000	      0.00000000	      0.00000000	      0.00000000	      0.00000000	      0.00000000	      0.00000000	     13.27756150	    -21.54382463	      2.89224539	      4.01007199	      0.00000000	    -13.34221503	      0.00000000	     75.25860608	     89.69695942	      0.00000000	      0.00000000	      0.00000000	    -13.34221503	      0.00000000	     75.25860608	     89.69695942	      0.00000000	      0.00000000
      0.91986000	      2.24150652	     -3.77804945	      1.59062840	      0.43930552	      1.04478651	      0.37717144	      8.25254979	      5.57308825	     -0.54833320	     22.66854660	      0.39564077	     10.76260480	      0.00000000	      0.00000000	     13.84513908	     -9.23636010	     -0.93089248	     63.13585423	      1.10192853	     -2.63768956	     -4.59734776	     17.69047817	      0.00000000	      0.00000000	      0.00000000	      0.00000000	      0.00000000	      0.00000000	      0.00000000	      0.00000000	      0.00000000	     13.25570817	    -21.51413530	      2.69199143	      4.03383681	      0.00000000	    -13.34527773	      0.00000000	     75.25767140	     89.69772081	      0.00000000	      0.00000000	      0.00000000	    -13.34527773	      0.00000000	     75.25767140	     89.69772081	      0.00000000	      0.00000000
      0.92404000	      2.19863872	     -3.59717605	      1.50629383	      0.44435785	      1.04591296	      0.37732099	      7.72941651	      5.40964380	     -0.42860091	     22.21049678	      0.38764630	     10.69722545	      0.00000000	      0.00000000	     14.36727909	     -8.99025087	     -0.76141637	     62.62501921	      1.09301278	     -2.51768597	     -4.72306653	     17.33233550	      0.00000000	      0.00000000	      0.00000000	      0.00000000	      0.00000000	      0.00000000	      0.00000000	      0.00000000	      0.00000000	     13.23164792	    -21.49466431	      2.42591550	      4.08613629	      0.00000000	    -13.34770652	      0.00000000	     75.25693136	     89.69832424	      0.00000000	      0.00000000	      0.00000000	    -13.34770652	      0.00000000	     75.25693136	     89.69832424	      0.00000000	      0.00000000
      0.92822000	      2.12303335	     -3.40185292	      1.39219765	      0.44947785	      1.04693402	      0.37751455	      7.26358351	      5.22160035	     -0.33355930	     21.80355356	      0.38054380	     10.66477318	      0.00000000	      0.00000000	     14.89351717	     -8.73946566	     -0.62097773	     62.13556104	      1.08447012	     -2.31220846	     -4.85110049	     16.98280762	      0.00000000	      0.00000000	      0.00000000	      0.00000000	      0.00000000	      0.00000000	      0.00000000	      0.00000000	      0.00000000	     13.19727083	    -21.45052898	      2.11261143	      4.14630312	      0.00000000	    -13.34942600	      0.00000000	     75.25640807	     89.69875125	      0.00000000	      0.00000000	      0.00000000	    -13.34942600	      0.00000000	     75.25640807	     89.69875125	      0.00000000	      0.00000000
